<mxfile host="app.diagrams.net" modified="2020-08-04T08:09:56.787Z" agent="5.0 (Macintosh)" etag="GmsZp98K0Vz9Db5uSZ0o" version="13.5.9" type="github">
  <diagram id="C5RBs43oDa-KdzZeNtuy" name="Page-1">
    <mxGraphModel dx="1426" dy="780" grid="1" gridSize="10" guides="1" tooltips="1" connect="1" arrows="1" fold="1" page="1" pageScale="1" pageWidth="1169" pageHeight="827" math="0" shadow="0">
      <root>
        <mxCell id="WIyWlLk6GJQsqaUBKTNV-0" />
        <mxCell id="WIyWlLk6GJQsqaUBKTNV-1" parent="WIyWlLk6GJQsqaUBKTNV-0" />
        <mxCell id="3-ooRY-Uqv30yBmOTu0w-3" value="connected to" style="edgeStyle=orthogonalEdgeStyle;rounded=0;orthogonalLoop=1;jettySize=auto;html=1;" parent="WIyWlLk6GJQsqaUBKTNV-1" source="3-ooRY-Uqv30yBmOTu0w-1" target="3-ooRY-Uqv30yBmOTu0w-2" edge="1">
          <mxGeometry relative="1" as="geometry" />
        </mxCell>
        <mxCell id="3-ooRY-Uqv30yBmOTu0w-1" value="Node " style="rounded=1;whiteSpace=wrap;html=1;" parent="WIyWlLk6GJQsqaUBKTNV-1" vertex="1">
          <mxGeometry x="210" y="240" width="60" height="60" as="geometry" />
        </mxCell>
        <mxCell id="3-ooRY-Uqv30yBmOTu0w-5" value="by an" style="edgeStyle=orthogonalEdgeStyle;rounded=0;orthogonalLoop=1;jettySize=auto;html=1;" parent="WIyWlLk6GJQsqaUBKTNV-1" source="3-ooRY-Uqv30yBmOTu0w-2" target="3-ooRY-Uqv30yBmOTu0w-4" edge="1">
          <mxGeometry relative="1" as="geometry" />
        </mxCell>
        <mxCell id="3-ooRY-Uqv30yBmOTu0w-2" value="Node " style="rounded=1;whiteSpace=wrap;html=1;" parent="WIyWlLk6GJQsqaUBKTNV-1" vertex="1">
          <mxGeometry x="360" y="240" width="60" height="60" as="geometry" />
        </mxCell>
        <mxCell id="iifBjZBDHeOPhqKnwbvr-1" value="is defined as " style="edgeStyle=orthogonalEdgeStyle;rounded=0;orthogonalLoop=1;jettySize=auto;html=1;" edge="1" parent="WIyWlLk6GJQsqaUBKTNV-1" source="3-ooRY-Uqv30yBmOTu0w-4" target="iifBjZBDHeOPhqKnwbvr-0">
          <mxGeometry relative="1" as="geometry" />
        </mxCell>
        <mxCell id="3-ooRY-Uqv30yBmOTu0w-4" value="Arc" style="rounded=1;whiteSpace=wrap;html=1;" parent="WIyWlLk6GJQsqaUBKTNV-1" vertex="1">
          <mxGeometry x="500" y="240" width="60" height="60" as="geometry" />
        </mxCell>
        <mxCell id="iifBjZBDHeOPhqKnwbvr-0" value="Arrow" style="rounded=1;whiteSpace=wrap;html=1;" vertex="1" parent="WIyWlLk6GJQsqaUBKTNV-1">
          <mxGeometry x="500" y="380" width="60" height="60" as="geometry" />
        </mxCell>
      </root>
    </mxGraphModel>
  </diagram>
</mxfile>
